<?xml version="1.0" encoding="UTF-8" standalone="no"?>
<svg width="90px" height="90px" viewBox="0 0 90 90" version="1.1" xmlns="http://www.w3.org/2000/svg" xmlns:xlink="http://www.w3.org/1999/xlink">
    <!-- Generator: Sketch 3.8.3 (29802) - http://www.bohemiancoding.com/sketch -->
    <title>Slice 1</title>
    <desc>Created with Sketch.</desc>
    <defs></defs>
    <g id="Page-1" stroke="none" stroke-width="1" fill="none" fill-rule="evenodd">
        <g id="noun_55093_cc" fill="#000000">
            <path d="M45,89.917 C20.218,89.917 0.056,69.755 0.056,44.973 C0.056,20.192 20.218,0.03 45,0.03 C69.782,0.03 89.944,20.192 89.944,44.973 C89.944,69.756 69.782,89.917 45,89.917 L45,89.917 Z M45,0.627 C20.547,0.627 0.653,20.521 0.653,44.974 C0.653,69.427 20.547,89.321 45,89.321 C69.453,89.321 89.347,69.427 89.347,44.974 C89.347,20.521 69.453,0.627 45,0.627 L45,0.627 Z" id="Shape"></path>
            <path d="M36.592,60.659 C35.016,60.659 33.997,59.386 33.997,57.414 L33.997,32.533 C33.997,30.562 35.015,29.288 36.592,29.288 C37.22,29.288 37.888,29.49 38.577,29.888 L60.126,42.329 C61.321,43.019 61.98,43.959 61.98,44.974 C61.98,45.989 61.322,46.928 60.126,47.618 L38.578,60.059 C37.888,60.457 37.22,60.659 36.592,60.659 L36.592,60.659 Z M36.592,29.885 C35.359,29.885 34.594,30.9 34.594,32.533 L34.594,57.415 C34.594,59.049 35.36,60.063 36.592,60.063 C37.106,60.063 37.69,59.883 38.279,59.543 L59.828,47.102 C60.831,46.523 61.383,45.767 61.383,44.974 C61.384,44.181 60.831,43.425 59.828,42.846 L38.279,30.405 C37.69,30.065 37.107,29.885 36.592,29.885 L36.592,29.885 Z" id="Shape"></path>
        </g>
    </g>
</svg>